<svg width="20" height="19" viewBox="0 0 20 19" fill="none" xmlns="http://www.w3.org/2000/svg">
<path d="M17.9337 17.5603C17.7517 17.4711 16.6151 17.2 16.6151 17.2C16.9457 16.9771 17.2057 16.6651 17.3654 16.3011C17.5251 15.9371 17.5771 15.5323 17.5177 15.1386C17.1797 13.2666 16.6597 10.1466 16.6597 10.1466C17.6997 9.0657 16.9643 7.16027 16.9643 7.16027C16.9345 6.53627 16.8231 5.91599 16.6263 5.32541C19.7128 2.14227 19.7945 0.708557 19.7945 0.708557C18.9625 0.708557 15.2185 4.03656 15.2185 4.03656C12.626 2.99656 10.9843 4.29656 10.9843 4.29656C6.04796 2.62513 5.00796 3.15999 5.00796 3.15999C6.22625 4.7497 9.87368 5.81941 9.87368 5.81941C9.89596 6.15741 9.50225 7.96999 9.50225 7.96999C9.49482 8.68684 9.67311 9.39627 10.0223 10.024L9.50596 12.936L9.00082 13.0697L9.17911 11.2943L8.01282 11.5988L8.40282 6.40999L0.209106 8.7537L2.15168 11.6657L6.63111 10.2654L6.71654 12.8097L8.15768 12.4048L8.01654 14.0911L9.39454 13.5934L9.14568 14.9863C9.14568 14.9863 9.16796 16.5388 10.3937 17.1926C10.3937 17.1926 8.54768 17.6754 9.27196 17.9726C9.54682 18.0357 9.82539 18.0766 10.104 18.0914C10.4828 18.0506 10.8542 17.9614 11.2108 17.8203C11.4857 17.8388 11.7605 17.8166 12.0317 17.7534C12.2397 17.6606 11.846 17.3374 11.846 17.3374C11.846 17.3374 13.0048 17.1703 13.562 17.2446L15.1442 17.4526C14.5685 18.0283 15.3671 17.9057 15.5603 17.8908C15.8574 17.9094 16.1545 17.9466 16.4517 18.0023C17.956 18.2846 18.112 17.6531 17.9337 17.5603Z" fill="#FFCE4B"/>
</svg>
